<mxfile host="app.diagrams.net" modified="2021-02-08T01:48:22.675Z" agent="5.0 (Windows NT 10.0; Win64; x64) AppleWebKit/537.36 (KHTML, like Gecko) Chrome/88.0.4324.146 Safari/537.36" etag="0TymMPSfLhtE05Ku6J3I" version="14.2.7" type="github">
  <diagram id="klfDVs9yjxkUNhX9MZwc" name="Page-1">
    <mxGraphModel dx="1837" dy="1048" grid="1" gridSize="10" guides="1" tooltips="1" connect="1" arrows="1" fold="1" page="1" pageScale="1" pageWidth="827" pageHeight="1169" math="0" shadow="0">
      <root>
        <mxCell id="0" />
        <mxCell id="1" parent="0" />
        <mxCell id="OEDFnlDAfdMZx7exMnzr-6" value="R:proc" style="rounded=0;whiteSpace=wrap;html=1;" vertex="1" parent="1">
          <mxGeometry x="330" y="50" width="80" height="30" as="geometry" />
        </mxCell>
        <mxCell id="OEDFnlDAfdMZx7exMnzr-13" style="edgeStyle=orthogonalEdgeStyle;rounded=0;orthogonalLoop=1;jettySize=auto;html=1;exitX=0.5;exitY=1;exitDx=0;exitDy=0;entryX=0.5;entryY=0;entryDx=0;entryDy=0;" edge="1" parent="1" source="OEDFnlDAfdMZx7exMnzr-7" target="OEDFnlDAfdMZx7exMnzr-10">
          <mxGeometry relative="1" as="geometry" />
        </mxCell>
        <mxCell id="OEDFnlDAfdMZx7exMnzr-19" style="edgeStyle=orthogonalEdgeStyle;rounded=0;orthogonalLoop=1;jettySize=auto;html=1;exitX=0.5;exitY=1;exitDx=0;exitDy=0;" edge="1" parent="1" source="OEDFnlDAfdMZx7exMnzr-7" target="OEDFnlDAfdMZx7exMnzr-9">
          <mxGeometry relative="1" as="geometry" />
        </mxCell>
        <mxCell id="OEDFnlDAfdMZx7exMnzr-7" value=":stmtList" style="rounded=0;whiteSpace=wrap;html=1;" vertex="1" parent="1">
          <mxGeometry x="330" y="110" width="80" height="30" as="geometry" />
        </mxCell>
        <mxCell id="OEDFnlDAfdMZx7exMnzr-8" value="" style="endArrow=classic;html=1;exitX=0.5;exitY=1;exitDx=0;exitDy=0;" edge="1" parent="1" source="OEDFnlDAfdMZx7exMnzr-6" target="OEDFnlDAfdMZx7exMnzr-7">
          <mxGeometry width="50" height="50" relative="1" as="geometry">
            <mxPoint x="390" y="340" as="sourcePoint" />
            <mxPoint x="440" y="290" as="targetPoint" />
          </mxGeometry>
        </mxCell>
        <mxCell id="OEDFnlDAfdMZx7exMnzr-20" style="edgeStyle=orthogonalEdgeStyle;rounded=0;orthogonalLoop=1;jettySize=auto;html=1;entryX=0.5;entryY=0;entryDx=0;entryDy=0;" edge="1" parent="1" target="OEDFnlDAfdMZx7exMnzr-11">
          <mxGeometry relative="1" as="geometry">
            <mxPoint x="370" y="140" as="sourcePoint" />
            <Array as="points">
              <mxPoint x="370" y="160" />
              <mxPoint x="570" y="160" />
            </Array>
          </mxGeometry>
        </mxCell>
        <mxCell id="OEDFnlDAfdMZx7exMnzr-38" style="edgeStyle=orthogonalEdgeStyle;rounded=0;orthogonalLoop=1;jettySize=auto;html=1;exitX=0.5;exitY=1;exitDx=0;exitDy=0;entryX=0.5;entryY=0;entryDx=0;entryDy=0;" edge="1" parent="1" source="OEDFnlDAfdMZx7exMnzr-9" target="OEDFnlDAfdMZx7exMnzr-28">
          <mxGeometry relative="1" as="geometry" />
        </mxCell>
        <mxCell id="OEDFnlDAfdMZx7exMnzr-39" style="edgeStyle=orthogonalEdgeStyle;rounded=0;orthogonalLoop=1;jettySize=auto;html=1;exitX=0.5;exitY=1;exitDx=0;exitDy=0;entryX=0.5;entryY=0;entryDx=0;entryDy=0;" edge="1" parent="1" source="OEDFnlDAfdMZx7exMnzr-9" target="OEDFnlDAfdMZx7exMnzr-29">
          <mxGeometry relative="1" as="geometry" />
        </mxCell>
        <mxCell id="OEDFnlDAfdMZx7exMnzr-9" value=":while" style="rounded=0;whiteSpace=wrap;html=1;" vertex="1" parent="1">
          <mxGeometry x="330" y="180" width="80" height="30" as="geometry" />
        </mxCell>
        <mxCell id="OEDFnlDAfdMZx7exMnzr-24" style="edgeStyle=orthogonalEdgeStyle;rounded=0;orthogonalLoop=1;jettySize=auto;html=1;exitX=0.5;exitY=1;exitDx=0;exitDy=0;entryX=0.5;entryY=0;entryDx=0;entryDy=0;" edge="1" parent="1" source="OEDFnlDAfdMZx7exMnzr-10" target="OEDFnlDAfdMZx7exMnzr-21">
          <mxGeometry relative="1" as="geometry" />
        </mxCell>
        <mxCell id="OEDFnlDAfdMZx7exMnzr-25" style="edgeStyle=orthogonalEdgeStyle;rounded=0;orthogonalLoop=1;jettySize=auto;html=1;exitX=0.5;exitY=1;exitDx=0;exitDy=0;" edge="1" parent="1" source="OEDFnlDAfdMZx7exMnzr-10" target="OEDFnlDAfdMZx7exMnzr-22">
          <mxGeometry relative="1" as="geometry" />
        </mxCell>
        <mxCell id="OEDFnlDAfdMZx7exMnzr-10" value=":assign" style="rounded=0;whiteSpace=wrap;html=1;" vertex="1" parent="1">
          <mxGeometry x="140" y="180" width="80" height="30" as="geometry" />
        </mxCell>
        <mxCell id="OEDFnlDAfdMZx7exMnzr-27" style="edgeStyle=orthogonalEdgeStyle;rounded=0;orthogonalLoop=1;jettySize=auto;html=1;exitX=0.5;exitY=1;exitDx=0;exitDy=0;entryX=0.5;entryY=0;entryDx=0;entryDy=0;" edge="1" parent="1" source="OEDFnlDAfdMZx7exMnzr-11" target="OEDFnlDAfdMZx7exMnzr-26">
          <mxGeometry relative="1" as="geometry" />
        </mxCell>
        <mxCell id="OEDFnlDAfdMZx7exMnzr-11" value=":read" style="rounded=0;whiteSpace=wrap;html=1;" vertex="1" parent="1">
          <mxGeometry x="530" y="180" width="80" height="30" as="geometry" />
        </mxCell>
        <mxCell id="OEDFnlDAfdMZx7exMnzr-21" value="z:var" style="rounded=0;whiteSpace=wrap;html=1;" vertex="1" parent="1">
          <mxGeometry x="80" y="240" width="80" height="30" as="geometry" />
        </mxCell>
        <mxCell id="OEDFnlDAfdMZx7exMnzr-22" value=":assign" style="rounded=0;whiteSpace=wrap;html=1;" vertex="1" parent="1">
          <mxGeometry x="190" y="240" width="80" height="30" as="geometry" />
        </mxCell>
        <mxCell id="OEDFnlDAfdMZx7exMnzr-26" value="r:var" style="rounded=0;whiteSpace=wrap;html=1;" vertex="1" parent="1">
          <mxGeometry x="530" y="240" width="80" height="30" as="geometry" />
        </mxCell>
        <mxCell id="OEDFnlDAfdMZx7exMnzr-40" style="edgeStyle=orthogonalEdgeStyle;rounded=0;orthogonalLoop=1;jettySize=auto;html=1;exitX=0.5;exitY=1;exitDx=0;exitDy=0;" edge="1" parent="1" source="OEDFnlDAfdMZx7exMnzr-28" target="OEDFnlDAfdMZx7exMnzr-30">
          <mxGeometry relative="1" as="geometry" />
        </mxCell>
        <mxCell id="OEDFnlDAfdMZx7exMnzr-41" style="edgeStyle=orthogonalEdgeStyle;rounded=0;orthogonalLoop=1;jettySize=auto;html=1;exitX=0.5;exitY=1;exitDx=0;exitDy=0;" edge="1" parent="1" source="OEDFnlDAfdMZx7exMnzr-28" target="OEDFnlDAfdMZx7exMnzr-31">
          <mxGeometry relative="1" as="geometry" />
        </mxCell>
        <mxCell id="OEDFnlDAfdMZx7exMnzr-28" value=":eq" style="rounded=0;whiteSpace=wrap;html=1;" vertex="1" parent="1">
          <mxGeometry x="240" y="300" width="80" height="30" as="geometry" />
        </mxCell>
        <mxCell id="OEDFnlDAfdMZx7exMnzr-80" style="edgeStyle=orthogonalEdgeStyle;rounded=0;orthogonalLoop=1;jettySize=auto;html=1;exitX=0.5;exitY=1;exitDx=0;exitDy=0;entryX=0.5;entryY=0;entryDx=0;entryDy=0;" edge="1" parent="1" source="OEDFnlDAfdMZx7exMnzr-29" target="OEDFnlDAfdMZx7exMnzr-34">
          <mxGeometry relative="1" as="geometry" />
        </mxCell>
        <mxCell id="OEDFnlDAfdMZx7exMnzr-81" style="edgeStyle=orthogonalEdgeStyle;rounded=0;orthogonalLoop=1;jettySize=auto;html=1;exitX=0.5;exitY=1;exitDx=0;exitDy=0;entryX=0.5;entryY=0;entryDx=0;entryDy=0;" edge="1" parent="1" source="OEDFnlDAfdMZx7exMnzr-29" target="OEDFnlDAfdMZx7exMnzr-35">
          <mxGeometry relative="1" as="geometry" />
        </mxCell>
        <mxCell id="OEDFnlDAfdMZx7exMnzr-82" style="edgeStyle=orthogonalEdgeStyle;rounded=0;orthogonalLoop=1;jettySize=auto;html=1;exitX=0.5;exitY=1;exitDx=0;exitDy=0;entryX=0.5;entryY=0;entryDx=0;entryDy=0;" edge="1" parent="1" source="OEDFnlDAfdMZx7exMnzr-29" target="OEDFnlDAfdMZx7exMnzr-36">
          <mxGeometry relative="1" as="geometry" />
        </mxCell>
        <mxCell id="OEDFnlDAfdMZx7exMnzr-29" value=":stmtList" style="rounded=0;whiteSpace=wrap;html=1;" vertex="1" parent="1">
          <mxGeometry x="480" y="300" width="80" height="30" as="geometry" />
        </mxCell>
        <mxCell id="OEDFnlDAfdMZx7exMnzr-30" value="x:var" style="rounded=0;whiteSpace=wrap;html=1;" vertex="1" parent="1">
          <mxGeometry x="170" y="370" width="80" height="30" as="geometry" />
        </mxCell>
        <mxCell id="OEDFnlDAfdMZx7exMnzr-31" value="42:const" style="rounded=0;whiteSpace=wrap;html=1;" vertex="1" parent="1">
          <mxGeometry x="300" y="370" width="80" height="30" as="geometry" />
        </mxCell>
        <mxCell id="OEDFnlDAfdMZx7exMnzr-42" style="edgeStyle=orthogonalEdgeStyle;rounded=0;orthogonalLoop=1;jettySize=auto;html=1;exitX=0.5;exitY=1;exitDx=0;exitDy=0;" edge="1" parent="1" source="OEDFnlDAfdMZx7exMnzr-34" target="OEDFnlDAfdMZx7exMnzr-37">
          <mxGeometry relative="1" as="geometry" />
        </mxCell>
        <mxCell id="OEDFnlDAfdMZx7exMnzr-45" style="edgeStyle=orthogonalEdgeStyle;rounded=0;orthogonalLoop=1;jettySize=auto;html=1;exitX=0.5;exitY=1;exitDx=0;exitDy=0;entryX=0.5;entryY=0;entryDx=0;entryDy=0;" edge="1" parent="1" source="OEDFnlDAfdMZx7exMnzr-34" target="OEDFnlDAfdMZx7exMnzr-43">
          <mxGeometry relative="1" as="geometry" />
        </mxCell>
        <mxCell id="OEDFnlDAfdMZx7exMnzr-34" value=":assign" style="rounded=0;whiteSpace=wrap;html=1;" vertex="1" parent="1">
          <mxGeometry x="440" y="370" width="80" height="30" as="geometry" />
        </mxCell>
        <mxCell id="OEDFnlDAfdMZx7exMnzr-74" style="edgeStyle=orthogonalEdgeStyle;rounded=0;orthogonalLoop=1;jettySize=auto;html=1;exitX=0.5;exitY=1;exitDx=0;exitDy=0;entryX=0.5;entryY=0;entryDx=0;entryDy=0;" edge="1" parent="1" source="OEDFnlDAfdMZx7exMnzr-35" target="OEDFnlDAfdMZx7exMnzr-72">
          <mxGeometry relative="1" as="geometry" />
        </mxCell>
        <mxCell id="OEDFnlDAfdMZx7exMnzr-75" style="edgeStyle=orthogonalEdgeStyle;rounded=0;orthogonalLoop=1;jettySize=auto;html=1;exitX=0.5;exitY=1;exitDx=0;exitDy=0;entryX=0.5;entryY=0;entryDx=0;entryDy=0;" edge="1" parent="1" source="OEDFnlDAfdMZx7exMnzr-35" target="OEDFnlDAfdMZx7exMnzr-73">
          <mxGeometry relative="1" as="geometry" />
        </mxCell>
        <mxCell id="OEDFnlDAfdMZx7exMnzr-35" value=":assign" style="rounded=0;whiteSpace=wrap;html=1;" vertex="1" parent="1">
          <mxGeometry x="620" y="370" width="80" height="30" as="geometry" />
        </mxCell>
        <mxCell id="OEDFnlDAfdMZx7exMnzr-89" style="edgeStyle=orthogonalEdgeStyle;rounded=0;orthogonalLoop=1;jettySize=auto;html=1;exitX=0.5;exitY=1;exitDx=0;exitDy=0;entryX=0.5;entryY=0;entryDx=0;entryDy=0;" edge="1" parent="1" source="OEDFnlDAfdMZx7exMnzr-36" target="OEDFnlDAfdMZx7exMnzr-83">
          <mxGeometry relative="1" as="geometry" />
        </mxCell>
        <mxCell id="OEDFnlDAfdMZx7exMnzr-90" style="edgeStyle=orthogonalEdgeStyle;rounded=0;orthogonalLoop=1;jettySize=auto;html=1;exitX=0.5;exitY=1;exitDx=0;exitDy=0;entryX=0.5;entryY=0;entryDx=0;entryDy=0;" edge="1" parent="1" source="OEDFnlDAfdMZx7exMnzr-36" target="OEDFnlDAfdMZx7exMnzr-86">
          <mxGeometry relative="1" as="geometry" />
        </mxCell>
        <mxCell id="OEDFnlDAfdMZx7exMnzr-36" value=":assign" style="rounded=0;whiteSpace=wrap;html=1;" vertex="1" parent="1">
          <mxGeometry x="860" y="370" width="80" height="30" as="geometry" />
        </mxCell>
        <mxCell id="OEDFnlDAfdMZx7exMnzr-37" value="z:var" style="rounded=0;whiteSpace=wrap;html=1;" vertex="1" parent="1">
          <mxGeometry x="220" y="450" width="80" height="30" as="geometry" />
        </mxCell>
        <mxCell id="OEDFnlDAfdMZx7exMnzr-46" style="edgeStyle=orthogonalEdgeStyle;rounded=0;orthogonalLoop=1;jettySize=auto;html=1;exitX=0.5;exitY=1;exitDx=0;exitDy=0;entryX=0.5;entryY=0;entryDx=0;entryDy=0;" edge="1" parent="1" source="OEDFnlDAfdMZx7exMnzr-43" target="OEDFnlDAfdMZx7exMnzr-44">
          <mxGeometry relative="1" as="geometry" />
        </mxCell>
        <mxCell id="OEDFnlDAfdMZx7exMnzr-48" style="edgeStyle=orthogonalEdgeStyle;rounded=0;orthogonalLoop=1;jettySize=auto;html=1;exitX=0.5;exitY=1;exitDx=0;exitDy=0;entryX=0.5;entryY=0;entryDx=0;entryDy=0;" edge="1" parent="1" source="OEDFnlDAfdMZx7exMnzr-43" target="OEDFnlDAfdMZx7exMnzr-47">
          <mxGeometry relative="1" as="geometry" />
        </mxCell>
        <mxCell id="OEDFnlDAfdMZx7exMnzr-43" value=":minus" style="rounded=0;whiteSpace=wrap;html=1;" vertex="1" parent="1">
          <mxGeometry x="334" y="450" width="80" height="30" as="geometry" />
        </mxCell>
        <mxCell id="OEDFnlDAfdMZx7exMnzr-44" value="z:var" style="rounded=0;whiteSpace=wrap;html=1;" vertex="1" parent="1">
          <mxGeometry x="400" y="520" width="80" height="30" as="geometry" />
        </mxCell>
        <mxCell id="OEDFnlDAfdMZx7exMnzr-50" style="edgeStyle=orthogonalEdgeStyle;rounded=0;orthogonalLoop=1;jettySize=auto;html=1;exitX=0.5;exitY=1;exitDx=0;exitDy=0;" edge="1" parent="1" source="OEDFnlDAfdMZx7exMnzr-47" target="OEDFnlDAfdMZx7exMnzr-49">
          <mxGeometry relative="1" as="geometry" />
        </mxCell>
        <mxCell id="OEDFnlDAfdMZx7exMnzr-52" style="edgeStyle=orthogonalEdgeStyle;rounded=0;orthogonalLoop=1;jettySize=auto;html=1;exitX=0.5;exitY=1;exitDx=0;exitDy=0;" edge="1" parent="1" source="OEDFnlDAfdMZx7exMnzr-47" target="OEDFnlDAfdMZx7exMnzr-51">
          <mxGeometry relative="1" as="geometry" />
        </mxCell>
        <mxCell id="OEDFnlDAfdMZx7exMnzr-47" value=":div" style="rounded=0;whiteSpace=wrap;html=1;" vertex="1" parent="1">
          <mxGeometry x="270" y="520" width="80" height="30" as="geometry" />
        </mxCell>
        <mxCell id="OEDFnlDAfdMZx7exMnzr-49" value="c:var" style="rounded=0;whiteSpace=wrap;html=1;" vertex="1" parent="1">
          <mxGeometry x="330" y="585" width="80" height="30" as="geometry" />
        </mxCell>
        <mxCell id="OEDFnlDAfdMZx7exMnzr-55" style="edgeStyle=orthogonalEdgeStyle;rounded=0;orthogonalLoop=1;jettySize=auto;html=1;exitX=0.5;exitY=1;exitDx=0;exitDy=0;entryX=0.5;entryY=0;entryDx=0;entryDy=0;" edge="1" parent="1" source="OEDFnlDAfdMZx7exMnzr-51" target="OEDFnlDAfdMZx7exMnzr-53">
          <mxGeometry relative="1" as="geometry" />
        </mxCell>
        <mxCell id="OEDFnlDAfdMZx7exMnzr-56" style="edgeStyle=orthogonalEdgeStyle;rounded=0;orthogonalLoop=1;jettySize=auto;html=1;exitX=0.5;exitY=1;exitDx=0;exitDy=0;entryX=0.5;entryY=0;entryDx=0;entryDy=0;" edge="1" parent="1" source="OEDFnlDAfdMZx7exMnzr-51" target="OEDFnlDAfdMZx7exMnzr-54">
          <mxGeometry relative="1" as="geometry" />
        </mxCell>
        <mxCell id="OEDFnlDAfdMZx7exMnzr-51" value=":div" style="rounded=0;whiteSpace=wrap;html=1;" vertex="1" parent="1">
          <mxGeometry x="210" y="585" width="80" height="30" as="geometry" />
        </mxCell>
        <mxCell id="OEDFnlDAfdMZx7exMnzr-53" value="b:var" style="rounded=0;whiteSpace=wrap;html=1;" vertex="1" parent="1">
          <mxGeometry x="270" y="650" width="80" height="30" as="geometry" />
        </mxCell>
        <mxCell id="OEDFnlDAfdMZx7exMnzr-59" style="edgeStyle=orthogonalEdgeStyle;rounded=0;orthogonalLoop=1;jettySize=auto;html=1;exitX=0.5;exitY=1;exitDx=0;exitDy=0;" edge="1" parent="1" source="OEDFnlDAfdMZx7exMnzr-54">
          <mxGeometry relative="1" as="geometry">
            <mxPoint x="129.99999999999977" y="720" as="targetPoint" />
          </mxGeometry>
        </mxCell>
        <mxCell id="OEDFnlDAfdMZx7exMnzr-60" style="edgeStyle=orthogonalEdgeStyle;rounded=0;orthogonalLoop=1;jettySize=auto;html=1;exitX=0.5;exitY=1;exitDx=0;exitDy=0;entryX=0.5;entryY=0;entryDx=0;entryDy=0;" edge="1" parent="1" source="OEDFnlDAfdMZx7exMnzr-54" target="OEDFnlDAfdMZx7exMnzr-57">
          <mxGeometry relative="1" as="geometry" />
        </mxCell>
        <mxCell id="OEDFnlDAfdMZx7exMnzr-54" value=":div" style="rounded=0;whiteSpace=wrap;html=1;" vertex="1" parent="1">
          <mxGeometry x="150" y="650" width="80" height="30" as="geometry" />
        </mxCell>
        <mxCell id="OEDFnlDAfdMZx7exMnzr-70" style="edgeStyle=orthogonalEdgeStyle;rounded=0;orthogonalLoop=1;jettySize=auto;html=1;exitX=0.5;exitY=1;exitDx=0;exitDy=0;entryX=0.5;entryY=0;entryDx=0;entryDy=0;" edge="1" parent="1" source="OEDFnlDAfdMZx7exMnzr-57" target="OEDFnlDAfdMZx7exMnzr-68">
          <mxGeometry relative="1" as="geometry" />
        </mxCell>
        <mxCell id="OEDFnlDAfdMZx7exMnzr-71" style="edgeStyle=orthogonalEdgeStyle;rounded=0;orthogonalLoop=1;jettySize=auto;html=1;exitX=0.5;exitY=1;exitDx=0;exitDy=0;entryX=0.5;entryY=0;entryDx=0;entryDy=0;" edge="1" parent="1" source="OEDFnlDAfdMZx7exMnzr-57" target="OEDFnlDAfdMZx7exMnzr-67">
          <mxGeometry relative="1" as="geometry" />
        </mxCell>
        <mxCell id="OEDFnlDAfdMZx7exMnzr-57" value=":minus" style="rounded=0;whiteSpace=wrap;html=1;" vertex="1" parent="1">
          <mxGeometry x="210" y="720" width="80" height="30" as="geometry" />
        </mxCell>
        <mxCell id="OEDFnlDAfdMZx7exMnzr-64" style="edgeStyle=orthogonalEdgeStyle;rounded=0;orthogonalLoop=1;jettySize=auto;html=1;exitX=0.5;exitY=1;exitDx=0;exitDy=0;entryX=0.5;entryY=0;entryDx=0;entryDy=0;" edge="1" parent="1" source="OEDFnlDAfdMZx7exMnzr-61" target="OEDFnlDAfdMZx7exMnzr-62">
          <mxGeometry relative="1" as="geometry" />
        </mxCell>
        <mxCell id="OEDFnlDAfdMZx7exMnzr-66" style="edgeStyle=orthogonalEdgeStyle;rounded=0;orthogonalLoop=1;jettySize=auto;html=1;exitX=0.5;exitY=1;exitDx=0;exitDy=0;entryX=0.5;entryY=0;entryDx=0;entryDy=0;" edge="1" parent="1" source="OEDFnlDAfdMZx7exMnzr-61" target="OEDFnlDAfdMZx7exMnzr-65">
          <mxGeometry relative="1" as="geometry" />
        </mxCell>
        <mxCell id="OEDFnlDAfdMZx7exMnzr-61" value=":times" style="rounded=0;whiteSpace=wrap;html=1;" vertex="1" parent="1">
          <mxGeometry x="90" y="720" width="80" height="30" as="geometry" />
        </mxCell>
        <mxCell id="OEDFnlDAfdMZx7exMnzr-62" value="a:var" style="rounded=0;whiteSpace=wrap;html=1;" vertex="1" parent="1">
          <mxGeometry x="40" y="790" width="80" height="30" as="geometry" />
        </mxCell>
        <mxCell id="OEDFnlDAfdMZx7exMnzr-65" value="b:var" style="rounded=0;whiteSpace=wrap;html=1;" vertex="1" parent="1">
          <mxGeometry x="150" y="790" width="80" height="30" as="geometry" />
        </mxCell>
        <mxCell id="OEDFnlDAfdMZx7exMnzr-67" value="a:var" style="rounded=0;whiteSpace=wrap;html=1;" vertex="1" parent="1">
          <mxGeometry x="360" y="790" width="80" height="30" as="geometry" />
        </mxCell>
        <mxCell id="OEDFnlDAfdMZx7exMnzr-68" value="c:var" style="rounded=0;whiteSpace=wrap;html=1;" vertex="1" parent="1">
          <mxGeometry x="254" y="790" width="80" height="30" as="geometry" />
        </mxCell>
        <mxCell id="OEDFnlDAfdMZx7exMnzr-72" value="z:var" style="rounded=0;whiteSpace=wrap;html=1;" vertex="1" parent="1">
          <mxGeometry x="580" y="450" width="80" height="30" as="geometry" />
        </mxCell>
        <mxCell id="OEDFnlDAfdMZx7exMnzr-78" style="edgeStyle=orthogonalEdgeStyle;rounded=0;orthogonalLoop=1;jettySize=auto;html=1;exitX=0.5;exitY=1;exitDx=0;exitDy=0;" edge="1" parent="1" source="OEDFnlDAfdMZx7exMnzr-73" target="OEDFnlDAfdMZx7exMnzr-76">
          <mxGeometry relative="1" as="geometry" />
        </mxCell>
        <mxCell id="OEDFnlDAfdMZx7exMnzr-79" style="edgeStyle=orthogonalEdgeStyle;rounded=0;orthogonalLoop=1;jettySize=auto;html=1;exitX=0.5;exitY=1;exitDx=0;exitDy=0;entryX=0.5;entryY=0;entryDx=0;entryDy=0;" edge="1" parent="1" source="OEDFnlDAfdMZx7exMnzr-73" target="OEDFnlDAfdMZx7exMnzr-77">
          <mxGeometry relative="1" as="geometry" />
        </mxCell>
        <mxCell id="OEDFnlDAfdMZx7exMnzr-73" value=":plus" style="rounded=0;whiteSpace=wrap;html=1;" vertex="1" parent="1">
          <mxGeometry x="680" y="450" width="80" height="30" as="geometry" />
        </mxCell>
        <mxCell id="OEDFnlDAfdMZx7exMnzr-76" value="42:const" style="rounded=0;whiteSpace=wrap;html=1;" vertex="1" parent="1">
          <mxGeometry x="620" y="520" width="80" height="30" as="geometry" />
        </mxCell>
        <mxCell id="OEDFnlDAfdMZx7exMnzr-77" value="3:const" style="rounded=0;whiteSpace=wrap;html=1;" vertex="1" parent="1">
          <mxGeometry x="740" y="520" width="80" height="30" as="geometry" />
        </mxCell>
        <mxCell id="OEDFnlDAfdMZx7exMnzr-83" value="x:var" style="rounded=0;whiteSpace=wrap;html=1;" vertex="1" parent="1">
          <mxGeometry x="810" y="440" width="80" height="30" as="geometry" />
        </mxCell>
        <mxCell id="OEDFnlDAfdMZx7exMnzr-84" style="edgeStyle=orthogonalEdgeStyle;rounded=0;orthogonalLoop=1;jettySize=auto;html=1;exitX=0.5;exitY=1;exitDx=0;exitDy=0;" edge="1" source="OEDFnlDAfdMZx7exMnzr-86" target="OEDFnlDAfdMZx7exMnzr-87" parent="1">
          <mxGeometry relative="1" as="geometry" />
        </mxCell>
        <mxCell id="OEDFnlDAfdMZx7exMnzr-85" style="edgeStyle=orthogonalEdgeStyle;rounded=0;orthogonalLoop=1;jettySize=auto;html=1;exitX=0.5;exitY=1;exitDx=0;exitDy=0;entryX=0.5;entryY=0;entryDx=0;entryDy=0;" edge="1" source="OEDFnlDAfdMZx7exMnzr-86" target="OEDFnlDAfdMZx7exMnzr-88" parent="1">
          <mxGeometry relative="1" as="geometry" />
        </mxCell>
        <mxCell id="OEDFnlDAfdMZx7exMnzr-86" value=":div" style="rounded=0;whiteSpace=wrap;html=1;" vertex="1" parent="1">
          <mxGeometry x="910" y="440" width="80" height="30" as="geometry" />
        </mxCell>
        <mxCell id="OEDFnlDAfdMZx7exMnzr-87" value="a:var" style="rounded=0;whiteSpace=wrap;html=1;" vertex="1" parent="1">
          <mxGeometry x="850" y="510" width="80" height="30" as="geometry" />
        </mxCell>
        <mxCell id="OEDFnlDAfdMZx7exMnzr-88" value="b:var" style="rounded=0;whiteSpace=wrap;html=1;" vertex="1" parent="1">
          <mxGeometry x="970" y="510" width="80" height="30" as="geometry" />
        </mxCell>
        <mxCell id="OEDFnlDAfdMZx7exMnzr-91" value="" style="endArrow=classic;html=1;entryX=1;entryY=0.5;entryDx=0;entryDy=0;exitX=0;exitY=0.5;exitDx=0;exitDy=0;dashed=1;" edge="1" parent="1" source="OEDFnlDAfdMZx7exMnzr-9" target="OEDFnlDAfdMZx7exMnzr-10">
          <mxGeometry relative="1" as="geometry">
            <mxPoint x="310" y="190" as="sourcePoint" />
            <mxPoint x="470" y="190" as="targetPoint" />
          </mxGeometry>
        </mxCell>
        <mxCell id="OEDFnlDAfdMZx7exMnzr-92" value="Follows" style="edgeLabel;resizable=0;html=1;align=center;verticalAlign=middle;" connectable="0" vertex="1" parent="OEDFnlDAfdMZx7exMnzr-91">
          <mxGeometry relative="1" as="geometry" />
        </mxCell>
        <mxCell id="OEDFnlDAfdMZx7exMnzr-106" value="" style="endArrow=classic;html=1;dashed=1;exitX=0;exitY=0.5;exitDx=0;exitDy=0;entryX=1;entryY=0.5;entryDx=0;entryDy=0;" edge="1" parent="1" source="OEDFnlDAfdMZx7exMnzr-11" target="OEDFnlDAfdMZx7exMnzr-9">
          <mxGeometry relative="1" as="geometry">
            <mxPoint x="370" y="190" as="sourcePoint" />
            <mxPoint x="470" y="190" as="targetPoint" />
          </mxGeometry>
        </mxCell>
        <mxCell id="OEDFnlDAfdMZx7exMnzr-107" value="Follows" style="edgeLabel;resizable=0;html=1;align=center;verticalAlign=middle;" connectable="0" vertex="1" parent="OEDFnlDAfdMZx7exMnzr-106">
          <mxGeometry relative="1" as="geometry" />
        </mxCell>
        <mxCell id="OEDFnlDAfdMZx7exMnzr-108" value="" style="endArrow=classic;html=1;dashed=1;entryX=1;entryY=0.5;entryDx=0;entryDy=0;exitX=0;exitY=0.5;exitDx=0;exitDy=0;" edge="1" parent="1" source="OEDFnlDAfdMZx7exMnzr-35" target="OEDFnlDAfdMZx7exMnzr-34">
          <mxGeometry relative="1" as="geometry">
            <mxPoint x="690" y="440" as="sourcePoint" />
            <mxPoint x="790" y="440" as="targetPoint" />
          </mxGeometry>
        </mxCell>
        <mxCell id="OEDFnlDAfdMZx7exMnzr-109" value="Follows" style="edgeLabel;resizable=0;html=1;align=center;verticalAlign=middle;" connectable="0" vertex="1" parent="OEDFnlDAfdMZx7exMnzr-108">
          <mxGeometry relative="1" as="geometry" />
        </mxCell>
        <mxCell id="OEDFnlDAfdMZx7exMnzr-110" value="" style="endArrow=classic;html=1;dashed=1;exitX=0;exitY=0.5;exitDx=0;exitDy=0;entryX=1;entryY=0.5;entryDx=0;entryDy=0;" edge="1" parent="1" source="OEDFnlDAfdMZx7exMnzr-36" target="OEDFnlDAfdMZx7exMnzr-35">
          <mxGeometry relative="1" as="geometry">
            <mxPoint x="690" y="440" as="sourcePoint" />
            <mxPoint x="790" y="440" as="targetPoint" />
          </mxGeometry>
        </mxCell>
        <mxCell id="OEDFnlDAfdMZx7exMnzr-111" value="Follows" style="edgeLabel;resizable=0;html=1;align=center;verticalAlign=middle;" connectable="0" vertex="1" parent="OEDFnlDAfdMZx7exMnzr-110">
          <mxGeometry relative="1" as="geometry" />
        </mxCell>
      </root>
    </mxGraphModel>
  </diagram>
</mxfile>
